<svg width="257" height="36" viewBox="0 0 257 36" fill="none" xmlns="http://www.w3.org/2000/svg">
<g clip-path="url(#clip0)">
<path fill-rule="evenodd" clip-rule="evenodd" d="M0.0200721 7.24486C0.309205 3.19539 3.68599 0 7.80911 0H42.9501C47.0732 0 50.4499 3.19539 50.7391 7.24486H0.0200721ZM0 14.4447H50.7592V28.1903C50.7592 32.5032 47.2629 35.9995 42.9501 35.9995H7.80911C3.49625 35.9995 0 32.5032 0 28.1903V14.4447ZM8.27992 20.6997C6.78874 20.6997 5.57992 21.9085 5.57992 23.3997V27.4496C5.57992 28.9407 6.78874 30.1496 8.27992 30.1496C9.77099 30.1496 10.9798 28.9407 10.9798 27.4496V23.3997C10.9798 21.9085 9.77099 20.6997 8.27992 20.6997ZM14.1298 20.0247C14.1298 18.5335 15.3386 17.3247 16.8297 17.3247C18.3209 17.3247 19.5297 18.5335 19.5297 20.0247V30.8245C19.5297 32.3157 18.3209 33.5245 16.8297 33.5245C15.3386 33.5245 14.1298 32.3157 14.1298 30.8245V20.0247ZM25.3796 20.6997C23.8884 20.6997 22.6797 21.9085 22.6797 23.3997V27.4496C22.6797 28.9407 23.8884 30.1496 25.3796 30.1496C26.8707 30.1496 28.0796 28.9407 28.0796 27.4496V23.3997C28.0796 21.9085 26.8707 20.6997 25.3796 20.6997ZM31.2295 20.0247C31.2295 18.5335 32.4383 17.3247 33.9295 17.3247C35.4206 17.3247 36.6294 18.5335 36.6294 20.0247V30.8245C36.6294 32.3157 35.4206 33.5245 33.9295 33.5245C32.4383 33.5245 31.2295 32.3157 31.2295 30.8245V20.0247ZM42.4794 20.6997C40.9882 20.6997 39.7794 21.9085 39.7794 23.3997V27.4496C39.7794 28.9407 40.9882 30.1496 42.4794 30.1496C43.9704 30.1496 45.1793 28.9407 45.1793 27.4496V23.3997C45.1793 21.9085 43.9704 20.6997 42.4794 20.6997Z" fill="#E266ED"/>
</g>
<path d="M82.7488 16.36V11.08H85.5388C87.5788 11.08 88.4488 12.1 88.4488 13.72C88.4488 15.34 87.5788 16.36 85.5388 16.36H82.7488ZM93.6688 13.72C93.6688 9.85 91.0888 6.94 85.9288 6.94H77.6188V28H82.7488V20.44H85.9288C91.2988 20.44 93.6688 17.2 93.6688 13.72ZM95.3195 19.6C95.3195 24.88 98.5895 28.24 102.669 28.24C105.159 28.24 106.929 27.1 107.859 25.63V28H112.989V11.26H107.859V13.63C106.959 12.16 105.189 11.02 102.699 11.02C98.5895 11.02 95.3195 14.32 95.3195 19.6ZM107.859 19.63C107.859 22.3 106.149 23.77 104.199 23.77C102.279 23.77 100.539 22.27 100.539 19.6C100.539 16.93 102.279 15.49 104.199 15.49C106.149 15.49 107.859 16.96 107.859 19.63ZM124.411 21.73L120.541 11.26H114.811L121.621 27.43L117.781 35.95H123.301L133.801 11.26H128.251L124.411 21.73ZM152.036 19.63C152.036 14.32 148.256 11.02 143.336 11.02C138.446 11.02 134.636 14.32 134.636 19.63C134.636 24.94 138.356 28.24 143.276 28.24C148.196 28.24 152.036 24.94 152.036 19.63ZM139.856 19.63C139.856 16.78 141.476 15.46 143.336 15.46C145.136 15.46 146.816 16.78 146.816 19.63C146.816 22.45 145.106 23.8 143.276 23.8C141.416 23.8 139.856 22.45 139.856 19.63ZM154.757 28H159.887V5.8H154.757V28ZM163.605 28H168.735V11.26H163.605V28ZM166.185 9.52C167.985 9.52 169.215 8.29 169.215 6.76C169.215 5.2 167.985 3.97 166.185 3.97C164.355 3.97 163.125 5.2 163.125 6.76C163.125 8.29 164.355 9.52 166.185 9.52ZM179.833 15.13C181.543 15.13 182.983 16.18 182.983 18.01H176.563C176.863 16.15 178.153 15.13 179.833 15.13ZM187.843 22.45H182.383C181.963 23.35 181.153 24.07 179.713 24.07C178.063 24.07 176.713 23.05 176.533 20.86H188.143C188.203 20.35 188.233 19.84 188.233 19.36C188.233 14.26 184.783 11.02 179.893 11.02C174.913 11.02 171.433 14.32 171.433 19.63C171.433 24.94 174.973 28.24 179.893 28.24C184.063 28.24 187.033 25.72 187.843 22.45Z" fill="#E266ED"/>
<path d="M199.759 26H201.509V18.55C201.509 15.225 203.284 13.625 205.834 13.625C208.334 13.625 209.984 15.175 209.984 18.2V26H211.709V18C211.709 14 209.284 12.1 206.259 12.1C204.184 12.1 202.384 13 201.509 14.675V7.5H199.759V26ZM221.404 13.65C223.929 13.65 226.229 15.25 226.154 18.425H216.554C216.754 15.25 218.929 13.65 221.404 13.65ZM227.729 21.675H225.879C225.379 23.5 223.804 24.725 221.479 24.725C218.929 24.725 216.704 23.05 216.554 19.85H227.879C227.929 19.375 227.929 19.025 227.929 18.475C227.929 15 225.479 12.15 221.479 12.15C217.554 12.15 214.779 14.825 214.779 19.175C214.779 23.5 217.604 26.2 221.479 26.2C224.904 26.2 227.104 24.25 227.729 21.675ZM231.131 26H232.881V7.5H231.131V26ZM238.569 15.35V12.35H236.844V32.45H238.569V23C239.369 24.7 241.269 26.2 243.994 26.2C247.719 26.2 250.494 23.425 250.494 19.15C250.494 14.875 247.719 12.15 243.994 12.15C241.269 12.15 239.369 13.625 238.569 15.35ZM248.719 19.15C248.719 22.6 246.519 24.675 243.644 24.675C240.869 24.675 238.569 22.575 238.569 19.175C238.569 15.775 240.869 13.675 243.644 13.675C246.519 13.675 248.719 15.675 248.719 19.15ZM255.264 24.825C255.264 24.1 254.714 23.55 254.014 23.55C253.289 23.55 252.739 24.1 252.739 24.825C252.739 25.55 253.289 26.125 254.014 26.125C254.714 26.125 255.264 25.55 255.264 24.825Z" fill="#E266ED"/>
<defs>
<clipPath id="clip0">
<rect width="50.7592" height="36" fill="white"/>
</clipPath>
</defs>
</svg>
